<svg width="144" height="100" viewBox="0 0 144 100" fill="none" xmlns="http://www.w3.org/2000/svg">
<g clip-path="url(#clip0_287_738)">
<path d="M137.652 97.7128V97.2585H139.661V97.7128H138.926V99.7171H138.387V97.7128H137.652Z" fill="#D94430"/>
<path d="M140.703 97.2585L141.276 98.9501H141.283L141.825 97.2585H142.584V99.7193H142.079V97.9753H142.073L141.472 99.7193H141.056L140.455 97.9936H140.448V99.7193H139.943V97.2585H140.703Z" fill="#D94430"/>
<path d="M15.4461 97.9091V99.7468H0C0.432219 97.7996 0.575534 96.4665 0.575534 95.1333V79.129C0.575534 77.7936 0.432219 76.4605 0 74.5156H14.8001V76.3532C13.4352 75.7757 11.9634 75.3077 9.69991 75.3077H2.8026V86.0503L12.1067 85.87V87.0593L2.8026 86.8789V98.9546H10.346C12.6458 98.9546 14.0812 98.4867 15.4461 97.9091Z" fill="#D94430"/>
<path d="M41.4385 74.5156C41.0086 76.4628 40.863 77.7959 40.863 79.129V99.7468H39.8575L23.8017 77.9397V95.1333C23.8017 96.4665 23.945 97.8019 24.3409 99.7468H22.2207C22.6529 97.7996 22.7962 96.4665 22.7962 95.1333V74.5156H23.8017L39.8575 96.3226V79.129C39.8575 77.7959 39.7142 76.4628 39.3184 74.5156H41.4385Z" fill="#D94430"/>
<path d="M59.1688 95.1333C59.1688 96.4665 59.3121 97.8019 59.708 99.7468H56.3662C56.7621 97.7996 56.9418 96.4665 56.9418 95.1333V88.0683L48.2109 74.5156H51.7301C51.6937 75.4881 52.0895 76.497 52.6651 77.4718L58.7002 86.952L64.1234 77.8324C64.8787 76.5701 65.0584 75.5611 65.022 74.5156H67.1421L59.1666 87.9244V95.1333H59.1688Z" fill="#D94430"/>
<path d="M92.4177 99.7468H89.076C89.2921 98.7378 88.8599 97.8361 88.2866 96.6833L84.0827 88.4997C83.4003 88.607 82.6109 88.68 81.8193 88.68H76.7896V95.1333C76.7896 96.4665 76.9329 97.8019 77.3651 99.7468H73.9893C74.4192 97.7996 74.5648 96.4665 74.5648 95.1333V79.129C74.5648 77.7959 74.4215 76.4628 73.9893 74.5156H81.9284C87.2447 74.5156 90.8003 77.1111 90.8003 81.5442C90.8003 85.0048 88.6802 87.3834 85.2315 88.2851L86.9922 89.2941L92.4154 99.7468H92.4177ZM81.6054 87.8879C85.7365 87.8879 88.4299 85.5093 88.4299 81.5442C88.4299 77.5791 85.7365 75.3077 81.6054 75.3077H76.7919V87.8879H81.6054Z" fill="#D94430"/>
<path d="M119.297 96.3226C117.573 97.7995 114.161 100 109.67 100C102.702 100 97.5293 94.7019 97.5293 87.1323C97.5293 79.5627 102.595 74.2622 109.779 74.2622C113.874 74.2622 117.395 75.9195 119.263 79.1655L117.432 80.2818C116.21 77.2184 113.767 75.0543 109.852 75.0543C103.817 75.0543 99.902 79.9919 99.902 87.13C99.902 94.2681 103.926 99.2057 109.745 99.2057C113.264 99.2057 115.637 97.5484 117.072 95.9985V88.9334L109.672 89.8716V88.034H119.299V96.3249L119.297 96.3226Z" fill="#D94430"/>
<path d="M134.609 95.1333C134.609 96.4665 134.752 97.8019 135.148 99.7468H131.806C132.202 97.7996 132.382 96.4665 132.382 95.1333V88.0683L123.653 74.5156H127.172C127.136 75.4881 127.532 76.497 128.107 77.4718L134.143 86.952L139.566 77.8324C140.321 76.5701 140.501 75.5611 140.464 74.5156H142.585L134.609 87.9244V95.1333Z" fill="#D94430"/>
<path d="M101.371 29.8136C101.371 13.3981 88.014 0.0410156 71.5985 0.0410156C55.183 0.0410156 41.8232 13.3981 41.8232 29.8136C41.8232 29.8405 41.8259 29.8648 41.8259 29.889C41.8259 29.916 41.8232 29.9402 41.8259 29.9645C41.9095 46.3126 55.2315 59.5888 71.5985 59.5888C75.8533 59.5888 80.0892 58.67 83.9559 56.8969C87.987 55.0458 91.6759 52.2676 94.4756 48.8158C95.4295 47.6383 96.2702 46.3692 97.1298 45.1216C97.8546 44.0734 98.6118 42.7153 97.8411 41.4839C97.4908 40.9261 96.8684 40.5569 96.2109 40.4976C95.3621 40.4195 94.5295 40.8776 94.1145 41.6186C93.6645 42.427 93.8046 43.5264 93.6376 44.4183C93.2603 46.4231 92.3496 48.3308 90.8783 49.7643C85.8825 54.6011 79.0841 57.5814 71.5985 57.5814C56.6246 57.5814 44.3858 45.6659 43.8577 30.816H101.355C101.366 30.4818 101.371 30.1504 101.371 29.8136ZM43.9789 28.8112C44.4963 26.7525 46.3582 25.222 48.5786 25.222C50.7989 25.222 52.6555 26.7498 53.1729 28.8112H43.9789ZM55.2235 28.8112C54.6738 25.6397 51.9037 23.2172 48.5759 23.2172C47.6004 23.2172 46.6762 23.4301 45.8382 23.7992C47.7487 21.1774 50.842 19.4717 54.3262 19.4717C59.7234 19.4717 64.183 23.5648 64.7623 28.8112H55.2235ZM66.7779 28.8112C66.1931 22.4573 60.8336 17.4643 54.3288 17.4643C51.9657 17.4643 49.7534 18.1217 47.8618 19.2669C50.8447 15.8637 55.2181 13.7134 60.0872 13.7134C68.6641 13.7134 75.7051 20.3879 76.3006 28.8112H66.7752H66.7779ZM78.3134 28.8112C77.7152 19.2804 69.7716 11.7059 60.0872 11.7059C56.3148 11.7059 52.8037 12.8538 49.8882 14.8236C53.9004 10.593 59.5698 7.94965 65.8455 7.94965C77.602 7.94965 87.2298 17.2083 87.8307 28.8112H78.3107H78.3134ZM89.8436 28.8112C89.2373 16.1008 78.7068 5.94218 65.8455 5.94218C60.4321 5.94218 55.4309 7.74755 51.4079 10.7817C56.4764 5.41134 63.6494 2.04849 71.5985 2.04849C86.5723 2.04849 98.8058 13.964 99.3393 28.8112H89.8436Z" fill="#D94430"/>
</g>
<defs>
<clipPath id="clip0_287_738">
<rect width="143.093" height="100" fill="white"/>
</clipPath>
</defs>
</svg>
