<svg width="16" height="16" viewBox="0 0 16 16" fill="none" xmlns="http://www.w3.org/2000/svg">
<g id="u:qrcode-scan" clip-path="url(#clip0_1471_1982)">
<path id="Vector" d="M5.33268 14H2.66602C2.4892 14 2.31964 13.9297 2.19461 13.8047C2.06959 13.6797 1.99935 13.5101 1.99935 13.3333V10.6666C1.99935 10.4898 1.92911 10.3202 1.80409 10.1952C1.67906 10.0702 1.50949 9.99996 1.33268 9.99996C1.15587 9.99996 0.986302 10.0702 0.861278 10.1952C0.736253 10.3202 0.666016 10.4898 0.666016 10.6666V13.3333C0.666016 13.8637 0.876729 14.3724 1.2518 14.7475C1.62687 15.1226 2.13558 15.3333 2.66602 15.3333H5.33268C5.50949 15.3333 5.67906 15.2631 5.80409 15.138C5.92911 15.013 5.99935 14.8434 5.99935 14.6666C5.99935 14.4898 5.92911 14.3202 5.80409 14.1952C5.67906 14.0702 5.50949 14 5.33268 14ZM14.666 9.99996C14.4892 9.99996 14.3196 10.0702 14.1946 10.1952C14.0696 10.3202 13.9993 10.4898 13.9993 10.6666V13.3333C13.9993 13.5101 13.9291 13.6797 13.8041 13.8047C13.6791 13.9297 13.5095 14 13.3327 14H10.666C10.4892 14 10.3196 14.0702 10.1946 14.1952C10.0696 14.3202 9.99935 14.4898 9.99935 14.6666C9.99935 14.8434 10.0696 15.013 10.1946 15.138C10.3196 15.2631 10.4892 15.3333 10.666 15.3333H13.3327C13.8631 15.3333 14.3718 15.1226 14.7469 14.7475C15.122 14.3724 15.3327 13.8637 15.3327 13.3333V10.6666C15.3327 10.4898 15.2624 10.3202 15.1374 10.1952C15.0124 10.0702 14.8428 9.99996 14.666 9.99996ZM13.3327 0.666626H10.666C10.4892 0.666626 10.3196 0.736864 10.1946 0.861888C10.0696 0.986912 9.99935 1.15648 9.99935 1.33329C9.99935 1.5101 10.0696 1.67967 10.1946 1.8047C10.3196 1.92972 10.4892 1.99996 10.666 1.99996H13.3327C13.5095 1.99996 13.6791 2.0702 13.8041 2.19522C13.9291 2.32025 13.9993 2.48981 13.9993 2.66663V5.33329C13.9993 5.5101 14.0696 5.67967 14.1946 5.8047C14.3196 5.92972 14.4892 5.99996 14.666 5.99996C14.8428 5.99996 15.0124 5.92972 15.1374 5.8047C15.2624 5.67967 15.3327 5.5101 15.3327 5.33329V2.66663C15.3327 2.13619 15.122 1.62749 14.7469 1.25241C14.3718 0.87734 13.8631 0.666626 13.3327 0.666626ZM1.33268 5.99996C1.50949 5.99996 1.67906 5.92972 1.80409 5.8047C1.92911 5.67967 1.99935 5.5101 1.99935 5.33329V2.66663C1.99935 2.48981 2.06959 2.32025 2.19461 2.19522C2.31964 2.0702 2.4892 1.99996 2.66602 1.99996H5.33268C5.50949 1.99996 5.67906 1.92972 5.80409 1.8047C5.92911 1.67967 5.99935 1.5101 5.99935 1.33329C5.99935 1.15648 5.92911 0.986912 5.80409 0.861888C5.67906 0.736864 5.50949 0.666626 5.33268 0.666626H2.66602C2.13558 0.666626 1.62687 0.87734 1.2518 1.25241C0.876729 1.62749 0.666016 2.13619 0.666016 2.66663V5.33329C0.666016 5.5101 0.736253 5.67967 0.861278 5.8047C0.986302 5.92972 1.15587 5.99996 1.33268 5.99996ZM6.66602 3.33329H3.99935C3.82254 3.33329 3.65297 3.40353 3.52794 3.52855C3.40292 3.65358 3.33268 3.82315 3.33268 3.99996V6.66663C3.33268 6.84344 3.40292 7.01301 3.52794 7.13803C3.65297 7.26305 3.82254 7.33329 3.99935 7.33329H6.66602C6.84283 7.33329 7.0124 7.26305 7.13742 7.13803C7.26244 7.01301 7.33268 6.84344 7.33268 6.66663V3.99996C7.33268 3.82315 7.26244 3.65358 7.13742 3.52855C7.0124 3.40353 6.84283 3.33329 6.66602 3.33329ZM5.99935 5.99996H4.66602V4.66663H5.99935V5.99996ZM9.33268 7.33329H11.9993C12.1762 7.33329 12.3457 7.26305 12.4708 7.13803C12.5958 7.01301 12.666 6.84344 12.666 6.66663V3.99996C12.666 3.82315 12.5958 3.65358 12.4708 3.52855C12.3457 3.40353 12.1762 3.33329 11.9993 3.33329H9.33268C9.15587 3.33329 8.9863 3.40353 8.86128 3.52855C8.73625 3.65358 8.66602 3.82315 8.66602 3.99996V6.66663C8.66602 6.84344 8.73625 7.01301 8.86128 7.13803C8.9863 7.26305 9.15587 7.33329 9.33268 7.33329ZM9.99935 4.66663H11.3327V5.99996H9.99935V4.66663ZM6.66602 8.66663H3.99935C3.82254 8.66663 3.65297 8.73686 3.52794 8.86189C3.40292 8.98691 3.33268 9.15648 3.33268 9.33329V12C3.33268 12.1768 3.40292 12.3463 3.52794 12.4714C3.65297 12.5964 3.82254 12.6666 3.99935 12.6666H6.66602C6.84283 12.6666 7.0124 12.5964 7.13742 12.4714C7.26244 12.3463 7.33268 12.1768 7.33268 12V9.33329C7.33268 9.15648 7.26244 8.98691 7.13742 8.86189C7.0124 8.73686 6.84283 8.66663 6.66602 8.66663ZM5.99935 11.3333H4.66602V9.99996H5.99935V11.3333ZM9.33268 10.6666C9.50949 10.6666 9.67906 10.5964 9.80409 10.4714C9.92911 10.3463 9.99935 10.1768 9.99935 9.99996C10.1762 9.99996 10.3457 9.92972 10.4708 9.8047C10.5958 9.67967 10.666 9.5101 10.666 9.33329C10.666 9.15648 10.5958 8.98691 10.4708 8.86189C10.3457 8.73686 10.1762 8.66663 9.99935 8.66663H9.33268C9.15587 8.66663 8.9863 8.73686 8.86128 8.86189C8.73625 8.98691 8.66602 9.15648 8.66602 9.33329V9.99996C8.66602 10.1768 8.73625 10.3463 8.86128 10.4714C8.9863 10.5964 9.15587 10.6666 9.33268 10.6666ZM11.9993 8.66663C11.8225 8.66663 11.653 8.73686 11.5279 8.86189C11.4029 8.98691 11.3327 9.15648 11.3327 9.33329V11.3333C11.1559 11.3333 10.9863 11.4035 10.8613 11.5286C10.7363 11.6536 10.666 11.8231 10.666 12C10.666 12.1768 10.7363 12.3463 10.8613 12.4714C10.9863 12.5964 11.1559 12.6666 11.3327 12.6666H11.9993C12.1762 12.6666 12.3457 12.5964 12.4708 12.4714C12.5958 12.3463 12.666 12.1768 12.666 12V9.33329C12.666 9.15648 12.5958 8.98691 12.4708 8.86189C12.3457 8.73686 12.1762 8.66663 11.9993 8.66663ZM9.33268 11.3333C9.20083 11.3333 9.07193 11.3724 8.9623 11.4456C8.85267 11.5189 8.76722 11.623 8.71676 11.7448C8.6663 11.8667 8.6531 12.0007 8.67882 12.13C8.70455 12.2593 8.76804 12.3781 8.86128 12.4714C8.95451 12.5646 9.0733 12.6281 9.20262 12.6538C9.33194 12.6795 9.46599 12.6663 9.5878 12.6159C9.70962 12.5654 9.81374 12.48 9.88699 12.3703C9.96025 12.2607 9.99935 12.1318 9.99935 12C9.99935 11.8231 9.92911 11.6536 9.80409 11.5286C9.67906 11.4035 9.50949 11.3333 9.33268 11.3333Z" fill="#D94430"/>
</g>
<defs>
<clipPath id="clip0_1471_1982">
<rect width="16" height="16" fill="white"/>
</clipPath>
</defs>
</svg>
