<svg width="20" height="20" viewBox="0 0 20 20" fill="none" xmlns="http://www.w3.org/2000/svg">
<path d="M9.6665 4.50841V3.29757L8.81218 4.15563L6.90462 6.07152C6.90451 6.07163 6.9044 6.07174 6.90428 6.07186C6.87308 6.10297 6.83608 6.12766 6.79537 6.14452L6.98671 6.60646L6.79537 6.14452C6.75451 6.16144 6.71073 6.17015 6.6665 6.17015C6.62228 6.17015 6.57849 6.16144 6.53764 6.14452L6.3463 6.60646L6.53764 6.14452C6.49678 6.1276 6.45966 6.10279 6.42839 6.07152C6.39712 6.04026 6.37232 6.00313 6.35539 5.96228C6.33847 5.92142 6.32976 5.87763 6.32976 5.83341C6.32976 5.78919 6.33847 5.7454 6.35539 5.70454C6.37232 5.66369 6.39712 5.62656 6.42839 5.5953L9.757 2.26669C9.78803 2.23773 9.82432 2.21495 9.86392 2.19959L9.86396 2.19969L9.87317 2.1959C9.95432 2.16256 10.0454 2.16256 10.1265 2.1959L10.1265 2.19599L10.1358 2.19959C10.1754 2.21495 10.2116 2.23772 10.2427 2.26669L13.5713 5.5953L13.5727 5.59674C13.604 5.62773 13.6288 5.6646 13.6457 5.70522C13.6626 5.74583 13.6713 5.7894 13.6713 5.83341C13.6713 5.87742 13.6626 5.92099 13.6457 5.9616C13.6288 6.00222 13.604 6.03909 13.5727 6.07008L13.5698 6.07298C13.5388 6.10422 13.502 6.12902 13.4614 6.14594C13.4207 6.16286 13.3772 6.17158 13.3332 6.17158C13.2892 6.17158 13.2456 6.16286 13.205 6.14594C13.1644 6.12902 13.1275 6.10422 13.0965 6.07298L13.0958 6.07229L11.1875 4.15563L10.3332 3.29757V4.50841V12.5001C10.3332 12.5885 10.2981 12.6733 10.2355 12.7358C10.173 12.7983 10.0882 12.8334 9.99984 12.8334C9.91143 12.8334 9.82665 12.7983 9.76414 12.7358C9.70162 12.6733 9.6665 12.5885 9.6665 12.5001V4.50841ZM3.22369 16.7762L3.57725 16.4227L3.2237 16.7762C3.47374 17.0263 3.81288 17.1667 4.1665 17.1667H15.8332C16.1868 17.1667 16.5259 17.0263 16.776 16.7762C17.026 16.5262 17.1665 16.187 17.1665 15.8334V10.8334C17.1665 10.745 17.2016 10.6602 17.2641 10.5977C17.3266 10.5352 17.4114 10.5001 17.4998 10.5001C17.5882 10.5001 17.673 10.5352 17.7355 10.5977C17.7981 10.6602 17.8332 10.745 17.8332 10.8334V15.8334C17.8332 16.3638 17.6225 16.8726 17.2474 17.2476C16.8723 17.6227 16.3636 17.8334 15.8332 17.8334H4.1665C3.63607 17.8334 3.12736 17.6227 2.75229 17.2476L2.40659 17.5933L2.75229 17.2476C2.37722 16.8726 2.1665 16.3638 2.1665 15.8334V10.8334C2.1665 10.745 2.20162 10.6602 2.26414 10.5977C2.32665 10.5352 2.41143 10.5001 2.49984 10.5001C2.58824 10.5001 2.67303 10.5352 2.73554 10.5977C2.79805 10.6602 2.83317 10.745 2.83317 10.8334V15.8334C2.83317 16.187 2.97365 16.5262 3.22369 16.7762Z" stroke="#D94430"/>
</svg>
